<svg xmlns="http://www.w3.org/2000/svg" width="171.513" height="198" viewBox="0 0 171.513 198"><g transform="translate(-19.79 -6.497)"><path d="M178.219,42.878H134.466a29.685,29.685,0,1,0-57.84,0H32.874A13.1,13.1,0,0,0,19.79,55.963v85.974a13.1,13.1,0,0,0,13.084,13.085H82.458v16.492h-9.9a3.3,3.3,0,0,0-3.2,2.5l-6.6,26.387a3.3,3.3,0,0,0,3.2,4.1h79.16a3.3,3.3,0,0,0,3.2-4.1l-6.6-26.387a3.3,3.3,0,0,0-3.2-2.5h-9.895V155.022h49.584A13.1,13.1,0,0,0,191.3,141.937V55.963a13.1,13.1,0,0,0-13.084-13.084ZM105.547,13.193A23.088,23.088,0,1,1,82.458,36.282a23.088,23.088,0,0,1,23.088-23.088ZM135.954,178.11,140.9,197.9H70.192l4.948-19.79h7.319v6.6a3.3,3.3,0,0,0,3.3,3.3h39.58a3.3,3.3,0,0,0,3.3-3.3v-6.6Zm-13.916,3.3H89.055V155.022h32.983Zm56.181-32.983H32.874a6.494,6.494,0,0,1-6.488-6.488v-1.9a12.923,12.923,0,0,0,6.488,1.791H178.219a12.923,12.923,0,0,0,6.488-1.791v1.9a6.494,6.494,0,0,1-6.488,6.488Zm0-13.193H32.874a6.494,6.494,0,0,1-6.488-6.488V55.963a6.494,6.494,0,0,1,6.488-6.488H79a29.619,29.619,0,0,0,53.1,0h46.121a6.494,6.494,0,0,1,6.488,6.488v72.781a6.494,6.494,0,0,1-6.488,6.488Z" fill="#64bd5d"/><rect width="56.072" height="6.597" transform="translate(89.441 113.889) rotate(-61.921)"/><path d="M151.723,92.353a3.3,3.3,0,0,0-1.187-2.536l-19.79-16.492L126.524,78.4l16.749,13.955-16.749,13.955,4.222,5.073,19.79-16.492A3.3,3.3,0,0,0,151.723,92.353Z"/><path d="M80.347,73.325,60.557,89.817a3.3,3.3,0,0,0,0,5.073l19.79,16.492,4.222-5.073L67.82,92.353,84.569,78.4Z"/><rect width="26.387" height="6.597" transform="translate(148.425 108.845)"/><path d="M105.547,42.878a6.6,6.6,0,0,0,6.6-6.6,6.514,6.514,0,0,0-.534-2.589l6.471-8.625L112.8,21.109l-6.488,8.655a5.887,5.887,0,0,0-.769-.079,6.6,6.6,0,0,0,0,13.193Z"/></g></svg>