<svg xmlns="http://www.w3.org/2000/svg" xmlns:xlink="http://www.w3.org/1999/xlink" width="40" height="40" viewBox="0 0 40 40"><defs><clipPath id="a"><rect width="40" height="40" transform="translate(655 301)" fill="#fff" stroke="#707070" stroke-width="1"/></clipPath></defs><g transform="translate(-655 -301)" clip-path="url(#a)"><g transform="translate(655 301)"><path d="M39.091,5.455H.909A.908.908,0,0,0,0,6.364V33.636a.908.908,0,0,0,.909.909H39.091A.909.909,0,0,0,40,33.636V6.364A.909.909,0,0,0,39.091,5.455Zm-.909,25.074L26.92,19.267l-1.285,1.285L37.809,32.727H2.191L14.365,20.553,13.08,19.267,1.818,30.528V7.273H38.182Z"/><path d="M36.345,7.273,20,23.617,3.655,7.273H1.818v.734L19.357,25.545a.908.908,0,0,0,1.285,0L38.182,8.006V7.273Z"/></g></g></svg>