<svg xmlns="http://www.w3.org/2000/svg" width="198.863" height="155" viewBox="0 0 198.863 155"><g transform="translate(0 -21.929)"><path d="M99.427,176.929C33.659,176.929.587,111.468.261,110.81A2.523,2.523,0,0,1,0,109.7v-.668a2.5,2.5,0,0,1,.261-1.109c.321-.658,33.4-66.129,99.166-66.129s98.849,65.466,99.176,66.129a2.518,2.518,0,0,1,.261,1.109v.668a2.5,2.5,0,0,1-.261,1.109C198.276,111.468,165.2,176.929,99.427,176.929ZM5.165,109.365c3.89,7.258,35.466,62.545,94.262,62.545,58.871,0,90.387-55.287,94.267-62.545-3.885-7.253-35.461-62.555-94.267-62.555C40.561,46.81,9.05,102.1,5.165,109.365Z" fill="#64bd5d"/><path d="M99.427,142a32.3,32.3,0,1,1,32.3-32.309A32.335,32.335,0,0,1,99.427,142Zm0-59.584a27.285,27.285,0,1,0,27.285,27.28A27.309,27.309,0,0,0,99.427,82.411Z" fill="#64bd5d"/><circle cx="10.771" cy="10.771" r="10.771" transform="translate(88.66 98.915)" fill="#64bd5d"/><path d="M99.432,46.81a2.511,2.511,0,0,1-2.51-2.51V24.439a2.51,2.51,0,0,1,5.019,0V44.3A2.507,2.507,0,0,1,99.432,46.81Z" fill="#64bd5d"/><path d="M23.284,81.739a2.521,2.521,0,0,1-1.777-.733L7.469,66.967a2.509,2.509,0,1,1,3.549-3.549L25.056,77.457a2.507,2.507,0,0,1-1.772,4.281Z" fill="#64bd5d"/><path d="M56.567,56.517a2.513,2.513,0,0,1-2.183-1.265L44.561,38a2.51,2.51,0,1,1,4.362-2.485l9.823,17.256a2.509,2.509,0,0,1-2.178,3.749Z" fill="#64bd5d"/><path d="M175.569,81.739a2.507,2.507,0,0,1-1.777-4.281l14.039-14.039a2.509,2.509,0,0,1,3.549,3.549L177.341,81.006A2.518,2.518,0,0,1,175.569,81.739Z" fill="#64bd5d"/><path d="M142.286,56.517a2.509,2.509,0,0,1-2.183-3.749l9.828-17.256A2.51,2.51,0,1,1,154.292,38l-9.828,17.256A2.517,2.517,0,0,1,142.286,56.517Z" fill="#64bd5d"/></g></svg>