<svg xmlns="http://www.w3.org/2000/svg" xmlns:xlink="http://www.w3.org/1999/xlink" width="70" height="70" viewBox="0 0 70 70"><defs><clipPath id="a"><rect width="70" height="70" transform="translate(1155 40)" fill="#fff" stroke="#707070" stroke-width="1"/></clipPath></defs><g transform="translate(-1155 -40)" clip-path="url(#a)"><g transform="translate(1155 40)"><path d="M10.254,70H59.746A10.265,10.265,0,0,0,70,59.746V10.254A10.265,10.265,0,0,0,59.746,0H10.254A10.265,10.265,0,0,0,0,10.254V59.746A10.265,10.265,0,0,0,10.254,70ZM4.1,10.254A6.159,6.159,0,0,1,10.254,4.1H59.746A6.159,6.159,0,0,1,65.9,10.254V59.746A6.159,6.159,0,0,1,59.746,65.9H10.254A6.159,6.159,0,0,1,4.1,59.746Zm0,0" fill="#64bd5d"/><path d="M35,53.457A18.457,18.457,0,1,0,16.543,35,18.478,18.478,0,0,0,35,53.457Zm0-32.812A14.355,14.355,0,1,1,20.645,35,14.372,14.372,0,0,1,35,20.645Zm0,0" fill="#64bd5d"/><path d="M55.508,20.645a6.152,6.152,0,1,0-6.152-6.152A6.159,6.159,0,0,0,55.508,20.645Zm0-8.2a2.051,2.051,0,1,1-2.051,2.051A2.053,2.053,0,0,1,55.508,12.441Zm0,0" fill="#64bd5d"/></g></g></svg>