<svg xmlns="http://www.w3.org/2000/svg" xmlns:xlink="http://www.w3.org/1999/xlink" width="36" height="36" viewBox="0 0 36 36"><defs><clipPath id="a"><rect width="36" height="36" transform="translate(55 1442)" fill="#64bd5d"/></clipPath></defs><g transform="translate(-55 -1442)" clip-path="url(#a)"><g transform="translate(55 1442)"><path d="M35.182,4.909H.818A.817.817,0,0,0,0,5.727V30.273a.817.817,0,0,0,.818.818H35.182A.818.818,0,0,0,36,30.273V5.727A.818.818,0,0,0,35.182,4.909Zm-.818,22.566L24.228,17.341,23.071,18.5,34.028,29.455H1.972L12.929,18.5l-1.157-1.157L1.636,27.475V6.545H34.364Z" fill="#64bd5d"/><path d="M32.71,6.545,18,21.256,3.29,6.545H1.636v.66L17.422,22.991a.817.817,0,0,0,1.157,0L34.364,7.206v-.66Z" fill="#64bd5d"/></g></g></svg>