<svg xmlns="http://www.w3.org/2000/svg" width="198.087" height="198" viewBox="0 0 198.087 198"><g transform="translate(0 -0.043)"><path d="M23.1,16.543a3.3,3.3,0,1,1-3.3-3.3A3.3,3.3,0,0,1,23.1,16.543Zm0,0" fill="#64bd5d"/><path d="M36.3,16.543a3.3,3.3,0,1,1-3.3-3.3A3.3,3.3,0,0,1,36.3,16.543Zm0,0" fill="#64bd5d"/><path d="M49.5,16.543a3.3,3.3,0,1,1-3.3-3.3A3.3,3.3,0,0,1,49.5,16.543Zm0,0" fill="#64bd5d"/><path d="M69.3,13.244a3.3,3.3,0,0,0,0,6.6h82.5a3.3,3.3,0,1,0,0-6.6Zm0,0" fill="#64bd5d"/><path d="M47.586,161.743H6.6V33.043H151.8a3.3,3.3,0,0,0,0-6.6H6.6V6.643H161.7V47.629a3.3,3.3,0,1,0,6.6,0V3.343a3.3,3.3,0,0,0-3.3-3.3H3.3A3.3,3.3,0,0,0,0,3.343v161.7a3.3,3.3,0,0,0,3.3,3.3H47.585a3.3,3.3,0,1,0,0-6.6Zm0,0" fill="#64bd5d"/><path d="M197.043,183.061l-18.15-18.018,10.627-7.095a3.284,3.284,0,0,0-.991-5.941l-44.318-11.78a3.3,3.3,0,0,0-4.027,4.027L151.8,188.572a3.282,3.282,0,0,0,5.939.991L165,178.936l18.15,18.15a3.346,3.346,0,0,0,4.686,0l9.339-9.339a3.3,3.3,0,0,0-.132-4.686Zm-11.682,7.029-18.679-18.677a3.291,3.291,0,0,0-2.309-.957h-.33a3.294,3.294,0,0,0-2.409,1.452l-5.28,7.887-8.348-31.746,31.746,8.348-7.887,5.346a3.263,3.263,0,0,0-.495,5.048l18.677,18.679Zm0,0"/><path d="M137.148,173.326a65.539,65.539,0,0,1-21.648,4.918v-29.7a131.512,131.512,0,0,1,14.586,1.155,3.332,3.332,0,0,0,.925-6.6,139.53,139.53,0,0,0-15.511-1.155v-26.4h33a118.192,118.192,0,0,1-1.518,15.445,3.345,3.345,0,1,0,6.6,1.088,123.311,123.311,0,0,0,1.518-16.532h23.1a65.524,65.524,0,0,1-4.752,21.648,3.294,3.294,0,1,0,6.105,2.475A72.793,72.793,0,0,0,112.2,39.644h-2.377A72.829,72.829,0,0,0,66,56.144a3.306,3.306,0,1,0,4.191,5.114A66.619,66.619,0,0,1,89.364,50.236,64.514,64.514,0,0,0,76.627,70.8a130.165,130.165,0,0,1-16.5-5.907,3.3,3.3,0,0,0-3.762.859.261.261,0,0,0-.232.2,72.594,72.594,0,0,0,.2,92.4l.232.263a72.132,72.132,0,0,0,83.061,20.823,3.3,3.3,0,1,0-2.475-6.105ZM108.9,177.947c-10.527-1.684-19.8-11.55-25.773-26.071a126.992,126.992,0,0,1,25.773-3.332Zm0-36a132.8,132.8,0,0,0-28.082,3.6,108.32,108.32,0,0,1-4.918-30h33Zm-62.536-26.4H69.3a114.413,114.413,0,0,0,5.148,31.812A132.949,132.949,0,0,0,60.06,152.47a65.54,65.54,0,0,1-13.7-36.927Zm94.711-42.9a127.366,127.366,0,0,1-25.575,3.3V46.574C125.928,48.322,135.1,58.222,141.075,72.644Zm-32.175,36.3h-33a107.169,107.169,0,0,1,4.95-30.1,132.662,132.662,0,0,0,28.05,3.7Zm6.6-26.4a132.967,132.967,0,0,0,27.852-3.564,107.137,107.137,0,0,1,4.95,29.964H115.5Zm62.7,26.4H155.1a114.268,114.268,0,0,0-5.114-31.779,129.764,129.764,0,0,0,14.586-5.148A65.543,65.543,0,0,1,178.2,108.943ZM160.05,66.737a125.982,125.982,0,0,1-12.309,4.225,63.3,63.3,0,0,0-12.8-20.659,66.377,66.377,0,0,1,24.948,16.434ZM108.9,46.54v29.4a126.967,126.967,0,0,1-25.773-3.3C89.1,58.09,98.373,48.224,108.9,46.54Zm-39.6,62.4H46.2A66.008,66.008,0,0,1,59.828,72.017,133.62,133.62,0,0,0,74.25,77.131,114,114,0,0,0,69.3,108.944ZM64.514,157.75a125.412,125.412,0,0,1,12.112-4.159A64.458,64.458,0,0,0,89.3,174.052a65.73,65.73,0,0,1-24.784-16.3Zm0,0" fill="#64bd5d"/><path d="M188.364,80.5a3.3,3.3,0,0,0,3.036,2.046,2.76,2.76,0,0,0,1.254-.264,3.3,3.3,0,0,0,1.782-4.289,87.383,87.383,0,0,0-13.729-22.671,3.3,3.3,0,0,0-5.048,4.125A81.617,81.617,0,0,1,188.364,80.5Zm0,0" fill="#64bd5d"/><path d="M43.659,55.318A89.1,89.1,0,0,0,23.1,112.243a3.3,3.3,0,0,0,6.6,0,82.5,82.5,0,0,1,19.041-52.8,3.3,3.3,0,1,0-5.082-4.223Zm0,0" fill="#64bd5d"/></g></svg>