<svg xmlns="http://www.w3.org/2000/svg" xmlns:xlink="http://www.w3.org/1999/xlink" width="70" height="70" viewBox="0 0 70 70"><defs><clipPath id="a"><rect width="70" height="70" transform="translate(55 1423)" fill="#fff"/></clipPath></defs><g transform="translate(-55 -1423)" clip-path="url(#a)"><g transform="translate(55 1423)"><path d="M70,34.1A34.421,34.421,0,0,1,19.025,63.954L0,70,6.2,51.705A33.74,33.74,0,0,1,1.272,34.1,34.365,34.365,0,0,1,70,34.1ZM35.636,5.43A28.812,28.812,0,0,0,6.745,34.1a28.367,28.367,0,0,0,5.5,16.808L8.639,61.553l11.1-3.529A28.92,28.92,0,0,0,64.528,34.1,28.815,28.815,0,0,0,35.636,5.43ZM52.989,41.952c-.212-.348-.773-.558-1.615-.975s-4.986-2.441-5.756-2.718-1.335-.418-1.9.418-2.175,2.718-2.668,3.276-.982.629-1.825.211a23.056,23.056,0,0,1-6.773-4.148,25.2,25.2,0,0,1-4.686-5.787c-.491-.836-.051-1.288.369-1.7.38-.375.843-.976,1.264-1.464a5.6,5.6,0,0,0,.842-1.395,1.523,1.523,0,0,0-.07-1.465c-.21-.418-1.9-4.531-2.6-6.2s-1.4-1.394-1.895-1.394-1.053-.07-1.615-.07a3.109,3.109,0,0,0-2.247,1.045,9.346,9.346,0,0,0-2.947,6.971c0,4.113,3.017,8.087,3.439,8.643S28.139,44.463,36.7,47.81s8.564,2.229,10.109,2.089,4.982-2.021,5.687-3.972A6.968,6.968,0,0,0,52.989,41.952Z" fill="#64bd5d"/></g></g></svg>