<svg xmlns="http://www.w3.org/2000/svg" width="184.476" height="155" viewBox="0 0 184.476 155"><path d="M116.3,19.333a4.6,4.6,0,0,0-4.6-4.6H63.02a4.6,4.6,0,0,0-4.6,4.6V48.554a4.6,4.6,0,0,0,4.6,4.6h44.09V66.132l-44.09,44.1L51.664,98.876a4.6,4.6,0,0,0-7.024.626L.822,162.518A4.6,4.6,0,0,0,4.6,169.737H179.881a4.6,4.6,0,0,0,3.578-7.481L116.3,66.583ZM67.616,43.959V23.929H107.11V43.959ZM13.389,160.546l35.66-51.285,10.72,10.725a4.6,4.6,0,0,0,6.5,0l44.818-44.833,59.939,85.393H13.389Z" transform="translate(0 -14.738)" fill="#64bd5d"/></svg>