<svg xmlns="http://www.w3.org/2000/svg" width="237.598" height="198" viewBox="0 0 237.598 198"><g transform="translate(0 -19.8)"><path d="M217.707,19.8H19.893A19.916,19.916,0,0,0,0,39.692V148.406A19.916,19.916,0,0,0,19.893,168.3H87.182l-6.758,20.272A14.874,14.874,0,0,0,69.3,202.948V207.9H54.45a4.95,4.95,0,1,0,0,9.9h128.7a4.95,4.95,0,0,0,0-9.9H168.3v-4.952a14.876,14.876,0,0,0-11.126-14.376L150.418,168.3h67.289A19.915,19.915,0,0,0,237.6,148.406V39.692A19.914,19.914,0,0,0,217.707,19.8ZM153.449,198a4.956,4.956,0,0,1,4.951,4.95V207.9H79.2v-4.952A4.955,4.955,0,0,1,84.15,198h69.3Zm-62.432-9.9,6.6-19.8h42.364l6.6,19.8ZM227.7,148.406a10,10,0,0,1-9.992,9.994H19.893A10.005,10.005,0,0,1,9.9,148.406V143.55H197.937a4.95,4.95,0,0,0,0-9.9H9.9V39.692A10,10,0,0,1,19.893,29.7H217.707a10,10,0,0,1,9.987,9.9H40.454a4.95,4.95,0,0,0,0,9.9H227.7v98.907Z" fill="#64bd5d"/><path d="M89.472,101.064h0a4.943,4.943,0,0,0,4.539,4.08l37.745,2.511v-.01a4.93,4.93,0,0,0,5.22-4.3l3.168-25,.949-7.5,6.586.032a4.93,4.93,0,0,0,.038-9.86l-10.947-.052a4.931,4.931,0,0,0-4.91,4.313l-1.5,11.825L127.784,97.49,98.536,95.542,95.8,80.221H115.46a4.95,4.95,0,1,0,0-9.9H89.9v0a5.117,5.117,0,0,0-.852.072,4.949,4.949,0,0,0-4.022,5.724Z"/><path d="M101.807,112.275a4.95,4.95,0,1,0,4.95,4.949A4.96,4.96,0,0,0,101.807,112.275Z"/><path d="M127.041,112.275a4.95,4.95,0,1,0,4.949,4.949A4.96,4.96,0,0,0,127.041,112.275Z"/><path d="M25.275,39.6H23.052a4.95,4.95,0,1,0,0,9.9h2.223a4.95,4.95,0,1,0,0-9.9Z"/><path d="M212.231,143.55h2.093a4.95,4.95,0,0,0,0-9.9h-2.093a4.95,4.95,0,0,0,0,9.9Z"/></g></svg>