<svg xmlns="http://www.w3.org/2000/svg" width="198" height="198" viewBox="0 0 198 198"><path d="M198,102.193V19.161H153.29V0H44.71V19.161H0v83.032H19.161v48.357a12.747,12.747,0,1,0,15.514,15.514h29.2v5.5l7.844,2.612-3.7,7.393L80.3,193.855l7.39-3.7L90.31,198h17.377l2.615-7.84,7.39,3.7,12.289-12.289-3.7-7.393,7.847-2.612v-5.5h29.2a12.747,12.747,0,1,0,15.514-15.514V102.193Zm-44.71-6.387V76.645h38.323V95.806Zm-99,0H51.1V70.258H146.9V95.806Zm99-44.71h38.323V70.258H153.29ZM146.9,63.871H51.1V38.323H146.9ZM44.71,70.258H6.387V51.1H44.71Zm146.9-44.71V44.71H153.29V25.548ZM146.9,6.387V31.935H51.1V6.387ZM44.71,25.548V44.71H6.387V25.548ZM6.387,76.645H44.71V95.806H6.387Zm15.968,92.613a6.387,6.387,0,1,1,6.387-6.387A6.393,6.393,0,0,1,22.355,169.258Zm12.32-9.581a12.755,12.755,0,0,0-9.127-9.127V102.193H95.806v25.548h-5.5l-2.615,7.84-7.39-3.7L68.016,144.176l3.7,7.393-7.844,2.612v5.5Zm93.067,7.277L120.4,169.4l-.536,1.422c-.154.405-.313.8-.49,1.2l-.619,1.382,3.452,6.9-5.777,5.777-6.9-3.452-1.383.619c-.4.179-.8.335-1.21.5l-1.408.54-2.443,7.326H94.913l-2.444-7.326-1.408-.54c-.409-.161-.816-.32-1.212-.5l-1.382-.619-6.9,3.452-5.777-5.777,3.452-6.9-.619-1.382c-.176-.393-.335-.792-.49-1.2l-.536-1.422-7.335-2.447v-8.171l7.338-2.447.536-1.422c.154-.405.313-.8.49-1.2l.619-1.382-3.452-6.9,5.777-5.777,6.9,3.452,1.383-.619c.4-.179.8-.335,1.21-.5l1.408-.54,2.443-7.323h8.171l2.443,7.326,1.408.54c.409.161.816.32,1.212.5l1.382.619,6.9-3.452,5.777,5.777-3.452,6.9.619,1.382c.176.393.335.792.49,1.2l.536,1.422,7.335,2.447Zm54.29-4.084a6.387,6.387,0,1,1-6.387-6.387A6.393,6.393,0,0,1,182.032,162.871Zm-9.581-12.32a12.755,12.755,0,0,0-9.127,9.127h-29.2v-5.5l-7.844-2.612,3.7-7.393L117.7,131.887l-7.39,3.7-2.615-7.84h-5.5V102.194h70.258Zm0,0" fill="#64bd5d"/><path d="M57.484,12.774h6.387v6.387H57.484Zm0,0"/><path d="M70.258,12.774h6.387v6.387H70.258Zm0,0"/><path d="M134.129,12.774h6.387V25.548h-6.387Zm0,0"/><path d="M121.355,12.774h6.387V25.548h-6.387Zm0,0"/><path d="M108.581,12.774h6.387V25.548h-6.387Zm0,0"/><path d="M57.484,44.71h6.387V51.1H57.484Zm0,0"/><path d="M70.258,44.71h6.387V51.1H70.258Zm0,0"/><path d="M134.129,44.71h6.387V57.484h-6.387Zm0,0"/><path d="M121.355,44.71h6.387V57.484h-6.387Zm0,0"/><path d="M108.581,44.71h6.387V57.484h-6.387Zm0,0"/><path d="M57.484,76.645h6.387v6.387H57.484Zm0,0"/><path d="M70.258,76.645h6.387v6.387H70.258Zm0,0"/><path d="M134.129,76.645h6.387V89.419h-6.387Zm0,0"/><path d="M121.355,76.645h6.387V89.419h-6.387Zm0,0"/><path d="M108.581,76.645h6.387V89.419h-6.387Zm0,0"/><path d="M178.839,31.935h6.387v6.387h-6.387Zm0,0"/><path d="M166.064,31.935h6.387v6.387h-6.387Zm0,0"/><path d="M178.839,57.484h6.387v6.387h-6.387Zm0,0"/><path d="M166.064,57.484h6.387v6.387h-6.387Zm0,0"/><path d="M178.839,83.032h6.387v6.387h-6.387Zm0,0"/><path d="M166.064,83.032h6.387v6.387h-6.387Zm0,0"/><path d="M25.548,31.935h6.387v6.387H25.548Zm0,0"/><path d="M12.774,31.935h6.387v6.387H12.774Zm0,0"/><path d="M25.548,57.484h6.387v6.387H25.548Zm0,0"/><path d="M12.774,57.484h6.387v6.387H12.774Zm0,0"/><path d="M25.548,83.032h6.387v6.387H25.548Zm0,0"/><path d="M12.774,83.032h6.387v6.387H12.774Zm0,0"/><path d="M99,146.9a15.968,15.968,0,1,0,15.968,15.968A15.987,15.987,0,0,0,99,146.9Zm0,25.548a9.581,9.581,0,1,1,9.581-9.581A9.593,9.593,0,0,1,99,172.452Zm0,0"/></svg>