<svg xmlns="http://www.w3.org/2000/svg" width="165.881" height="155" viewBox="0 0 165.881 155"><g transform="translate(0 -5.441)"><path d="M147.172,83.786,129.125,55.917a7.53,7.53,0,0,0-6.344-3.45H43.156a7.531,7.531,0,0,0-6.338,3.441l-18.1,27.873a7.574,7.574,0,0,0,.695,9.144L77.294,157.91a7.565,7.565,0,0,0,5.643,2.531h0a7.565,7.565,0,0,0,5.644-2.531l57.891-64.989A7.576,7.576,0,0,0,147.172,83.786ZM119.126,58.947l-15.178,23.47L88.762,58.947Zm-21.132,26.2H67.881L82.937,61.873ZM77.113,58.947,61.968,82.352,46.829,58.947ZM40.838,61.615,56.056,85.142h-30.5ZM26.926,91.621H59.534l17.241,55.964Zm56.011,53.958L66.314,91.621H99.561Zm6.162,2.008,17.242-55.966h32.611Zm20.8-62.446,15.2-23.51,15.224,23.51Z" fill="#64bd5d"/><path d="M9.828,85.142H3.24a3.24,3.24,0,0,0,0,6.48H9.828a3.24,3.24,0,1,0,0-6.48Z" fill="#64bd5d"/><path d="M162.642,85.142h-6.588a3.24,3.24,0,1,0,0,6.48h6.588a3.24,3.24,0,0,0,0-6.48Z" fill="#64bd5d"/><path d="M141.63,29.75a3.24,3.24,0,0,0-4.582,0L126.286,40.512a3.24,3.24,0,0,0,4.582,4.582L141.63,34.332A3.24,3.24,0,0,0,141.63,29.75Z" fill="#64bd5d"/><path d="M39.736,40.455,28.974,29.692a3.24,3.24,0,0,0-4.582,4.582L35.154,45.036a3.24,3.24,0,0,0,4.582-4.582Z" fill="#64bd5d"/><path d="M83.023,5.441a3.24,3.24,0,0,0-3.24,3.24V29.794a3.24,3.24,0,1,0,6.48,0V8.681A3.24,3.24,0,0,0,83.023,5.441Z" fill="#64bd5d"/><path d="M85.312,38.464a3.237,3.237,0,1,0,.95,2.291A3.263,3.263,0,0,0,85.312,38.464Z" fill="#64bd5d"/></g></svg>