<svg xmlns="http://www.w3.org/2000/svg" xmlns:xlink="http://www.w3.org/1999/xlink" width="40" height="40" viewBox="0 0 40 40"><defs><clipPath id="a"><rect width="40" height="40" transform="translate(655 301)" fill="#fff" stroke="#707070" stroke-width="1"/></clipPath></defs><g transform="translate(-655 -301)" clip-path="url(#a)"><g transform="translate(655 301)"><path d="M40,19.485a19.669,19.669,0,0,1-29.128,17.06L0,40,3.544,29.546A19.28,19.28,0,0,1,.727,19.485a19.637,19.637,0,0,1,39.273,0ZM20.364,3.1A16.464,16.464,0,0,0,3.854,19.485,16.21,16.21,0,0,0,7,29.089L4.936,35.173l6.344-2.016A16.526,16.526,0,0,0,36.873,19.486,16.466,16.466,0,0,0,20.364,3.1ZM30.28,23.972c-.121-.2-.442-.319-.923-.557s-2.849-1.395-3.289-1.553-.763-.239-1.084.239-1.243,1.553-1.524,1.872-.561.36-1.043.12a13.175,13.175,0,0,1-3.87-2.37,14.4,14.4,0,0,1-2.678-3.307c-.28-.478-.029-.736.211-.974.217-.214.482-.558.722-.836a3.2,3.2,0,0,0,.481-.8.87.87,0,0,0-.04-.837c-.12-.239-1.084-2.589-1.484-3.545s-.8-.8-1.083-.8-.6-.04-.923-.04a1.776,1.776,0,0,0-1.284.6,5.341,5.341,0,0,0-1.684,3.984,9.241,9.241,0,0,0,1.965,4.939c.24.318,3.329,5.3,8.222,7.21s4.894,1.274,5.776,1.194S29.6,27.359,30,26.244A3.982,3.982,0,0,0,30.28,23.972Z"/></g></g></svg>